<svg width="58" height="85" viewBox="0 0 58 85" fill="none" xmlns="http://www.w3.org/2000/svg">
<path fill-rule="evenodd" clip-rule="evenodd" d="M43 14H17V18V22H9V24H6V40H2V48H9V58H17V74V86H43V74V58H51V48H58V40H54V24H51V22H43V18V14Z" fill="#DB8AF3"/>
<path fill-rule="evenodd" clip-rule="evenodd" d="M14 0H16.185V2.185H14V0ZM5 17V17.185H2.18502V19.3844H5V28H4V40H7V41.9538H9.19938V44.1531H11.3844V46.3381H13.5838V48.5231H22.3381L22.3381 46.3381H24.5375L24.5375 44.1531H26.7225V41.9538H28.9075V37.5694H31.1069V41.9538H33.2919V44.1531H35.4769V46.3381H37.6763V48.5231H46.4306V46.3381H48.63V44.1531H50.815V41.9538H53V40H56V28H55V17H52.0475V15.3844H55.3844V13.185H52.0475V12.6619H49.1142V8.32385H46.181V6.16193H40.2953V4H20.5694V2.185H16.185V4.38437H19.7048V6.16193H13.819V8.32385H10.8858V12.6619H7.95253V17H5ZM52.0475 28V25.6619H49.1142V23.5H46.181V27.8381H43.2285V30H16.7715V27.8381H13.819V23.5H10.8858V25.6619H7.95253V28H8V33.1994H9.19938V41.9538H11.3844V44.1531H13.5838V46.3381H22.3381V44.1531H24.5375V41.9538H26.7225V33.1994H28.9075V35.3844H31.1069V33.1994H33.2919V41.9538H35.4769V44.1531H37.6763V46.3381H46.4306V44.1531H48.63V41.9538H50.815V33.1994H52V28H52.0475ZM50.815 33.1994H33.2919V31H50.815V33.1994ZM26.7225 33.1994H9.19938V31H26.7225V33.1994ZM19.7048 21.3381H16.7715V17H19.7048V14.8381H25.5905V17H34.4095V14.8381H40.2953V17H43.2285V23.5H40.2953V25.6619H31.4763V27.8381H28.5237V25.6619H19.7048V21.3381ZM11.3844 50.7225V63.8613H13.5837V68.2456H15.7687V72.63H17.9537V74.815H22.3381V77H37.6762V74.815H42.0606V72.63H44.2456V68.2456H46.4306V63.8613H48.63V50.7225H46.4306V55.1069H44.2456V57.2919H42.0606V52.9075H39.8612V50.7225H20.1531V52.9075H17.9537V57.2919H15.7687V55.1069H13.5837V50.7225H11.3844ZM20.1531 59.4769H22.3381V55.1069H28.9075V52.9075H31.1069V55.1069H37.6762V57.2919H39.8612V63.8613H37.6762V66.0462H33.2919V63.8613H26.7225V66.0462H22.3381V63.8613H20.1531V59.4769ZM44.2456 37.5694H46.4306V39.7687H44.2456V37.5694ZM42.0606 41.9538V39.7687H44.2456V41.9538H42.0606ZM42.0606 41.9538V44.1531H39.8613V41.9538H42.0606ZM39.8613 35.3844H42.0606V37.5694H39.8613V35.3844ZM39.8613 37.5694V39.7687H37.6763V37.5694L39.8613 37.5694ZM33.2919 57.2919H35.4769V59.4769H33.2919V57.2919ZM33.2919 59.4769L33.2919 61.6762H28.9075V59.4769H33.2919ZM26.7225 46.3381H33.2919V48.5231H26.7225V46.3381ZM22.3381 37.5694H20.1531V39.7687H17.9538V41.9538H15.7688V44.1531H17.9538V41.9538H20.1531V39.7687H22.3381V37.5694ZM17.9538 35.3844H15.7688V37.5694L13.5838 37.5694V39.7687H15.7688V37.5694H17.9538V35.3844ZM27.185 80H25V82.185H27.185V80ZM2.185 15H0V17.185H2.185V15ZM57.5694 11H55.3844V13.185H57.5694V11ZM31.5694 82.185H27.185V84.3844H31.5694V82.185Z" fill="#2D063A"/>
<path d="M28 27H32V30H28V27Z" fill="#DB8AF3"/>
</svg>
